<svg width="55" height="55" viewBox="0 0 55 55" fill="none" xmlns="http://www.w3.org/2000/svg">
<g clip-path="url(#clip0_271_157)">
<path d="M54.9839 0H0.0161133C0.00721416 0 0 0.00721416 0 0.0161133V54.9839C0 54.9928 0.00721416 55 0.0161133 55H54.9839C54.9928 55 55 54.9928 55 54.9839V0.0161133C55 0.00721416 54.9928 0 54.9839 0Z" fill="#2A2829"/>
<path d="M35.9858 53.6035C37.4897 53.6035 37.2749 55.4297 37.2749 55.4297H17.7241C17.7241 55.4297 17.5093 53.6035 19.0132 53.6035C20.4096 53.6035 20.7319 52.959 20.7319 52.3145L20.6245 46.9434C12.9975 48.6621 11.3862 43.9356 11.3862 43.9356C10.0971 40.7129 8.3784 39.9609 8.3784 39.9609C5.80027 38.2422 8.48582 38.2422 8.48582 38.2422C11.2788 38.457 12.7827 41.0352 12.7827 41.0352C15.146 45.2246 19.1206 44.043 20.7319 43.3984C20.9468 41.5723 21.6987 40.3906 22.4507 39.6387C16.3276 38.9941 9.98972 36.6309 9.98972 26.1035C9.98972 23.0957 11.0639 20.625 12.7827 18.6914C12.4604 18.0469 11.6011 15.2539 13.105 11.4941C13.105 11.4941 15.3608 10.7422 20.6245 14.2871C25.1362 12.9981 29.8628 12.9981 34.3745 14.2871C39.6382 10.7422 41.894 11.4941 41.894 11.4941C43.3979 15.2539 42.5386 18.0469 42.2163 18.6914C43.935 20.625 45.0093 23.0957 45.0093 26.1035C45.0093 36.6309 38.5639 38.9941 32.4409 39.6387C33.5151 40.4981 34.3745 42.2168 34.3745 44.7949L34.2671 52.3145C34.2671 52.959 34.5893 53.6035 35.9858 53.6035Z" fill="#F4F4F4"/>
</g>
<defs>
<clipPath id="clip0_271_157">
<rect width="55" height="55" fill="white"/>
</clipPath>
</defs>
</svg>
