<svg width="55" height="55" viewBox="0 0 55 55" fill="none" xmlns="http://www.w3.org/2000/svg">
<g clip-path="url(#clip0_271_160)">
<path d="M54.9839 0H0.0161133C0.00721416 0 0 0.00721416 0 0.0161133V54.9839C0 54.9928 0.00721416 55 0.0161133 55H54.9839C54.9928 55 55 54.9928 55 54.9839V0.0161133C55 0.00721416 54.9928 0 54.9839 0Z" fill="#2A2829"/>
<path d="M15.2539 18.7988C17.449 18.7988 19.2285 17.0193 19.2285 14.8242C19.2285 12.6291 17.449 10.8496 15.2539 10.8496C13.0588 10.8496 11.2793 12.6291 11.2793 14.8242C11.2793 17.0193 13.0588 18.7988 15.2539 18.7988Z" fill="#F4F4F4"/>
<path d="M19.2151 20.5422H11.268C11.2667 20.5422 11.2656 20.545 11.2656 20.5486V42.4032C11.2656 42.4068 11.2667 42.4096 11.268 42.4096H19.2151C19.2164 42.4096 19.2174 42.4068 19.2174 42.4032V20.5486C19.2174 20.545 19.2164 20.5422 19.2151 20.5422Z" fill="#F4F4F4"/>
<path d="M29.8167 20.5422H21.8695C21.8682 20.5422 21.8672 20.545 21.8672 20.5486V42.4032C21.8672 42.4068 21.8682 42.4096 21.8695 42.4096H29.8167C29.818 42.4096 29.819 42.4068 29.819 42.4032V20.5486C29.819 20.545 29.818 20.5422 29.8167 20.5422Z" fill="#F4F4F4"/>
<path d="M29.6484 30.293C29.6484 28.1445 31.0449 25.9961 33.5156 25.9961C36.0938 25.9961 37.0605 27.9297 37.0605 30.8301V42.1094H44.1504V29.9707C44.1504 23.418 40.7129 20.4102 35.9863 20.4102C32.334 20.4102 30.5078 22.4512 29.6484 23.8477" fill="#F4F4F4"/>
</g>
<defs>
<clipPath id="clip0_271_160">
<rect width="55" height="55" fill="white"/>
</clipPath>
</defs>
</svg>
