<svg width="55" height="55" viewBox="0 0 55 55" fill="none" xmlns="http://www.w3.org/2000/svg">
<g clip-path="url(#clip0_271_166)">
<path d="M54.9839 0H0.0161133C0.00721416 0 0 0.00721416 0 0.0161133V54.9839C0 54.9928 0.00721416 55 0.0161133 55H54.9839C54.9928 55 55 54.9928 55 54.9839V0.0161133C55 0.00721416 54.9928 0 54.9839 0Z" fill="#2A2829"/>
<path d="M27.995 13H11.005C11.0022 13 11 13.0007 11 13.0015V17.9985C11 17.9993 11.0022 18 11.005 18H27.995C27.9978 18 28 17.9993 28 17.9985V13.0015C28 13.0007 27.9978 13 27.995 13Z" fill="#F4F4F4"/>
<path d="M43.9956 37H29.0044C29.002 37 29 37.0007 29 37.0015V41.9985C29 41.9993 29.002 42 29.0044 42H43.9956C43.998 42 44 41.9993 44 41.9985V37.0015C44 37.0007 43.998 37 43.9956 37Z" fill="#F4F4F4"/>
<path d="M20.9971 37H11.0029L11 37.0015V41.9985L11.0029 42H20.9971L21 41.9985V37.0015L20.9971 37Z" fill="#F4F4F4"/>
<path d="M43.9903 25H11.0097C11.0043 25 11 25.0007 11 25.0015V29.9985C11 29.9993 11.0043 30 11.0097 30H43.9903C43.9957 30 44 29.9993 44 29.9985V25.0015C44 25.0007 43.9957 25 43.9903 25Z" fill="#F4F4F4"/>
<path d="M43.9977 13H36.0023C36.001 13 36 13.0007 36 13.0015V17.9985C36 17.9993 36.001 18 36.0023 18H43.9977C43.999 18 44 17.9993 44 17.9985V13.0015C44 13.0007 43.999 13 43.9977 13Z" fill="#F4F4F4"/>
</g>
<defs>
<clipPath id="clip0_271_166">
<rect width="55" height="55" fill="white"/>
</clipPath>
</defs>
</svg>
